<svg width="117" height="48" viewBox="0 0 117 48" fill="none" xmlns="http://www.w3.org/2000/svg">
<g clip-path="url(#clip0_975_12890)">
<g clip-path="url(#clip1_975_12890)">
<path d="M17.1341 6.86457C7.67265 6.86457 -5.72205e-06 14.5372 -5.72205e-06 23.9987C-5.72205e-06 25.0233 0.0959453 26.0239 0.267286 26.9971H4.07106C4.55767 26.9971 4.84895 26.8395 5.03742 26.5345L6.37388 24.3208L8.08387 29.6289C8.25178 30.1635 8.64929 30.4411 9.18388 30.4445C9.73217 30.4479 10.1845 30.1121 10.2907 29.5638L11.5312 23.7177L12.8814 33.0386C12.9637 33.652 13.2618 33.9604 13.8786 33.9604H13.8855C14.4989 33.9604 14.7936 33.628 14.8793 33.0181L17.631 14.8765C17.7098 14.3145 17.3157 13.7936 16.7537 13.7148C16.1952 13.6394 15.6709 14.03 15.592 14.592L13.8958 26.2227L12.7546 18.4609C12.6792 17.8647 12.2269 17.4946 11.7334 17.4843C11.1749 17.4706 10.7602 17.8201 10.6437 18.413L9.00568 26.0068L7.69664 21.9323C7.59383 21.4902 7.19975 21.1613 6.76797 21.1099C6.1717 21.0379 5.83244 21.3463 5.58229 21.7541L3.55704 24.941H2.34737C2.32681 24.6292 2.3131 24.3139 2.3131 23.9987C2.3131 15.812 8.94743 9.17767 17.1341 9.17767C23.7342 9.17767 29.3267 13.4955 31.2423 19.4581H33.6548C31.6638 12.2001 25.0261 6.86457 17.1341 6.86457Z" fill="url(#paint0_linear_975_12890)"/>
<path d="M34.0009 21.0002H30.1903C29.7037 21.0002 29.4124 21.1578 29.2239 21.4628L27.8875 23.6766L26.1775 18.3684C26.0096 17.8338 25.6121 17.5562 25.0775 17.5528C24.5292 17.5494 24.0768 17.8852 23.9706 18.4335L22.7301 24.2797L21.3799 14.9587C21.2977 14.3453 20.9996 14.0369 20.3827 14.0369H20.3759C19.7625 14.0369 19.4678 14.3693 19.3821 14.9793L16.6304 33.1209C16.5515 33.6829 16.9456 34.2037 17.5076 34.2826C18.0662 34.358 18.5905 33.9673 18.6693 33.4053L20.3656 21.7747L21.5067 29.5364C21.5821 30.1327 22.0345 30.5028 22.5279 30.5131C23.0865 30.5268 23.5011 30.1772 23.6176 29.5844L25.2557 21.9906L26.5647 26.065C26.6675 26.5071 27.0616 26.8361 27.4934 26.8875C28.0897 26.9594 28.4289 26.651 28.6791 26.2432L30.7043 23.0563H31.9208C31.9414 23.3681 31.9551 23.6834 31.9551 23.9987C31.9551 32.1853 25.3208 38.8197 17.1341 38.8197C10.534 38.8197 4.94147 34.5019 3.02588 28.5392H0.613395C2.60438 35.7972 9.24556 41.1328 17.1341 41.1328C26.5956 41.1328 34.2682 33.4601 34.2682 23.9987C34.2682 22.9741 34.1723 21.9734 34.0009 21.0002Z" fill="url(#paint1_linear_975_12890)"/>
</g>
<g clip-path="url(#clip2_975_12890)">
<path d="M49.2453 15.4322H52.7892V28.7065C52.7892 29.3645 52.9609 29.8508 53.3006 30.1834C53.4901 30.3586 53.7154 30.4909 53.9621 30.5767C54.2089 30.6626 54.4699 30.6983 54.731 30.684C55.389 30.684 55.8753 30.5016 56.1972 30.1405C56.5298 29.7256 56.6943 29.2071 56.6692 28.685V15.4322H60.2131V28.5598C60.2202 29.157 60.1237 29.7471 59.927 30.3121C59.741 30.8342 59.4299 31.3098 59.0115 31.6889C58.5502 32.1001 57.9959 32.4077 57.3952 32.5865C56.6156 32.8153 55.8002 32.9226 54.9813 32.9047C53.8799 32.9047 53.0073 32.7581 52.3708 32.4649C51.838 32.2503 51.3695 31.907 51.0119 31.4743C50.6507 31.907 50.1858 32.2468 49.653 32.4649C49.0165 32.7581 48.1475 32.9047 47.0425 32.9047C46.2271 32.9226 45.4118 32.8153 44.6322 32.5865C44.0279 32.4077 43.4736 32.1001 43.0123 31.6889C42.5939 31.3062 42.2828 30.8342 42.0968 30.3121C41.8965 29.7471 41.8 29.1535 41.8071 28.5598V15.4322H45.3653V28.685C45.3367 29.2071 45.5048 29.7256 45.8374 30.1405C46.1521 30.5016 46.642 30.684 47.3035 30.6876C47.5646 30.7019 47.8256 30.6661 48.0724 30.5803C48.3191 30.4945 48.5444 30.3586 48.734 30.1869C49.0737 29.8544 49.2418 29.3609 49.2418 28.71V15.4322H49.2453Z" fill="black"/>
<path d="M63.6819 15.4322H73.1334V17.6636H67.2222V22.4841H72.7758V24.7228H67.2222V30.3443H73.3695V32.5758H63.6784V15.4322H63.6819Z" fill="black"/>
<path d="M83.5576 19.3015C83.5576 18.6435 83.3895 18.1571 83.0498 17.8246C82.8602 17.6529 82.6349 17.517 82.3882 17.4312C82.1414 17.3454 81.8804 17.3096 81.6193 17.3239C80.9578 17.3239 80.475 17.5063 80.1532 17.8711C79.8206 18.2859 79.6525 18.8008 79.6811 19.3265V32.5758H76.1372V19.4374C76.1301 18.8437 76.2267 18.2501 76.4198 17.6851C76.6057 17.163 76.9204 16.691 77.3352 16.3083C77.7965 15.8971 78.3508 15.5895 78.9516 15.4107C79.7312 15.1819 80.5465 15.0746 81.3619 15.0925C82.4633 15.0925 83.3358 15.2391 83.9724 15.5323C84.5016 15.7505 84.9665 16.0938 85.3241 16.53C85.6889 16.0938 86.1609 15.754 86.6973 15.5395C87.3339 15.2462 88.2028 15.0996 89.3078 15.0996C90.1196 15.0817 90.9278 15.1854 91.7074 15.4143C92.3117 15.5931 92.8696 15.9007 93.3345 16.3119C93.7529 16.691 94.0676 17.1666 94.25 17.6887C94.4431 18.2537 94.5396 18.8473 94.5325 19.4409V32.5722H90.9743V19.3229C91.0029 18.8008 90.8348 18.2823 90.5022 17.8675C90.1876 17.5027 89.7012 17.3204 89.0361 17.3204C88.775 17.306 88.514 17.3418 88.2708 17.4276C88.0276 17.5135 87.8023 17.6458 87.6128 17.821C87.2731 18.1536 87.105 18.6435 87.105 19.2979V32.5722H83.554V19.3015H83.5576Z" fill="black"/>
<path d="M101.542 32.5758H97.9977V15.4322H101.542V32.5758Z" fill="black"/>
<path d="M104.191 15.4322H107.76L110.242 20.7605L112.699 15.4322H116.293L112.016 23.9003L116.457 32.5722H112.77L110.242 26.9041L107.725 32.5722H104.041L108.472 23.9003L104.191 15.4322Z" fill="black"/>
</g>
</g>
<defs>
<linearGradient id="paint0_linear_975_12890" x1="-5.72205e-06" y1="6.86457" x2="34.2682" y2="41.1328" gradientUnits="userSpaceOnUse">
<stop stop-color="#FC829F"/>
<stop offset="0.336804" stop-color="#FF1C53"/>
<stop offset="0.435763" stop-color="#EA49F8"/>
<stop offset="0.529514" stop-color="#B250FF"/>
<stop offset="0.633681" stop-color="#5E5FF5"/>
<stop offset="1" stop-color="#323CFF"/>
</linearGradient>
<linearGradient id="paint1_linear_975_12890" x1="-5.72205e-06" y1="6.86457" x2="34.2682" y2="41.1328" gradientUnits="userSpaceOnUse">
<stop stop-color="#FC829F"/>
<stop offset="0.336804" stop-color="#FF1C53"/>
<stop offset="0.435763" stop-color="#EA49F8"/>
<stop offset="0.529514" stop-color="#B250FF"/>
<stop offset="0.633681" stop-color="#5E5FF5"/>
<stop offset="1" stop-color="#323CFF"/>
</linearGradient>
<clipPath id="clip0_975_12890">
<rect width="116.571" height="48" fill="white"/>
</clipPath>
<clipPath id="clip1_975_12890">
<rect width="34.2682" height="34.2682" fill="white" transform="translate(0 6.86459)"/>
</clipPath>
<clipPath id="clip2_975_12890">
<rect width="74.6465" height="17.8195" fill="white" transform="translate(41.8071 15.0889)"/>
</clipPath>
</defs>
</svg>
